<?xml version="1.0" encoding="UTF-8"?>
<svg xmlns="http://www.w3.org/2000/svg" viewBox="0 0 686 686" role="img" aria-labelledby="title desc">
  <title id="title">QR code for the Acute Liver Injury Cases</title>
  <desc id="desc">https://qaddodi.github.io/acute-liver-injury-cases/</desc>
  <g fill="#34345e">
  <rect x="56" y="56" width="14" height="14"/>
  <rect x="70" y="56" width="14" height="14"/>
  <rect x="84" y="56" width="14" height="14"/>
  <rect x="98" y="56" width="14" height="14"/>
  <rect x="112" y="56" width="14" height="14"/>
  <rect x="126" y="56" width="14" height="14"/>
  <rect x="140" y="56" width="14" height="14"/>
  <circle cx="175" cy="63" r="5.4"/>
  <circle cx="189" cy="63" r="5.4"/>
  <circle cx="217" cy="63" r="5.4"/>
  <circle cx="231" cy="63" r="5.4"/>
  <circle cx="259" cy="63" r="5.4"/>
  <circle cx="287" cy="63" r="5.4"/>
  <circle cx="315" cy="63" r="5.4"/>
  <circle cx="329" cy="63" r="5.4"/>
  <circle cx="357" cy="63" r="5.4"/>
  <circle cx="413" cy="63" r="5.4"/>
  <circle cx="427" cy="63" r="5.4"/>
  <circle cx="455" cy="63" r="5.4"/>
  <circle cx="483" cy="63" r="5.4"/>
  <circle cx="497" cy="63" r="5.4"/>
  <circle cx="511" cy="63" r="5.4"/>
  <rect x="532" y="56" width="14" height="14"/>
  <rect x="546" y="56" width="14" height="14"/>
  <rect x="560" y="56" width="14" height="14"/>
  <rect x="574" y="56" width="14" height="14"/>
  <rect x="588" y="56" width="14" height="14"/>
  <rect x="602" y="56" width="14" height="14"/>
  <rect x="616" y="56" width="14" height="14"/>
  <rect x="56" y="70" width="14" height="14"/>
  <rect x="140" y="70" width="14" height="14"/>
  <circle cx="175" cy="77" r="5.4"/>
  <circle cx="203" cy="77" r="5.4"/>
  <circle cx="231" cy="77" r="5.4"/>
  <circle cx="273" cy="77" r="5.4"/>
  <circle cx="287" cy="77" r="5.4"/>
  <circle cx="315" cy="77" r="5.4"/>
  <circle cx="343" cy="77" r="5.4"/>
  <circle cx="371" cy="77" r="5.4"/>
  <circle cx="399" cy="77" r="5.4"/>
  <circle cx="413" cy="77" r="5.4"/>
  <circle cx="427" cy="77" r="5.4"/>
  <circle cx="441" cy="77" r="5.4"/>
  <circle cx="483" cy="77" r="5.4"/>
  <circle cx="511" cy="77" r="5.4"/>
  <rect x="532" y="70" width="14" height="14"/>
  <rect x="616" y="70" width="14" height="14"/>
  <rect x="56" y="84" width="14" height="14"/>
  <rect x="84" y="84" width="14" height="14"/>
  <rect x="98" y="84" width="14" height="14"/>
  <rect x="112" y="84" width="14" height="14"/>
  <rect x="140" y="84" width="14" height="14"/>
  <circle cx="175" cy="91" r="5.4"/>
  <circle cx="189" cy="91" r="5.4"/>
  <circle cx="245" cy="91" r="5.4"/>
  <circle cx="259" cy="91" r="5.4"/>
  <circle cx="273" cy="91" r="5.4"/>
  <circle cx="287" cy="91" r="5.4"/>
  <circle cx="315" cy="91" r="5.4"/>
  <circle cx="329" cy="91" r="5.4"/>
  <circle cx="357" cy="91" r="5.4"/>
  <circle cx="385" cy="91" r="5.4"/>
  <circle cx="399" cy="91" r="5.4"/>
  <circle cx="413" cy="91" r="5.4"/>
  <circle cx="511" cy="91" r="5.4"/>
  <rect x="532" y="84" width="14" height="14"/>
  <rect x="560" y="84" width="14" height="14"/>
  <rect x="574" y="84" width="14" height="14"/>
  <rect x="588" y="84" width="14" height="14"/>
  <rect x="616" y="84" width="14" height="14"/>
  <rect x="56" y="98" width="14" height="14"/>
  <rect x="84" y="98" width="14" height="14"/>
  <rect x="98" y="98" width="14" height="14"/>
  <rect x="112" y="98" width="14" height="14"/>
  <rect x="140" y="98" width="14" height="14"/>
  <circle cx="189" cy="105" r="5.4"/>
  <circle cx="329" cy="105" r="5.4"/>
  <circle cx="343" cy="105" r="5.4"/>
  <circle cx="371" cy="105" r="5.4"/>
  <circle cx="427" cy="105" r="5.4"/>
  <circle cx="441" cy="105" r="5.4"/>
  <circle cx="455" cy="105" r="5.4"/>
  <circle cx="483" cy="105" r="5.4"/>
  <circle cx="497" cy="105" r="5.4"/>
  <rect x="532" y="98" width="14" height="14"/>
  <rect x="560" y="98" width="14" height="14"/>
  <rect x="574" y="98" width="14" height="14"/>
  <rect x="588" y="98" width="14" height="14"/>
  <rect x="616" y="98" width="14" height="14"/>
  <rect x="56" y="112" width="14" height="14"/>
  <rect x="84" y="112" width="14" height="14"/>
  <rect x="98" y="112" width="14" height="14"/>
  <rect x="112" y="112" width="14" height="14"/>
  <rect x="140" y="112" width="14" height="14"/>
  <circle cx="189" cy="119" r="5.4"/>
  <circle cx="217" cy="119" r="5.4"/>
  <circle cx="231" cy="119" r="5.4"/>
  <circle cx="259" cy="119" r="5.4"/>
  <circle cx="287" cy="119" r="5.4"/>
  <circle cx="301" cy="119" r="5.4"/>
  <circle cx="315" cy="119" r="5.4"/>
  <circle cx="385" cy="119" r="5.4"/>
  <circle cx="413" cy="119" r="5.4"/>
  <circle cx="455" cy="119" r="5.4"/>
  <circle cx="497" cy="119" r="5.4"/>
  <circle cx="511" cy="119" r="5.4"/>
  <rect x="532" y="112" width="14" height="14"/>
  <rect x="560" y="112" width="14" height="14"/>
  <rect x="574" y="112" width="14" height="14"/>
  <rect x="588" y="112" width="14" height="14"/>
  <rect x="616" y="112" width="14" height="14"/>
  <rect x="56" y="126" width="14" height="14"/>
  <rect x="140" y="126" width="14" height="14"/>
  <circle cx="175" cy="133" r="5.4"/>
  <circle cx="189" cy="133" r="5.4"/>
  <circle cx="245" cy="133" r="5.4"/>
  <circle cx="273" cy="133" r="5.4"/>
  <circle cx="329" cy="133" r="5.4"/>
  <circle cx="371" cy="133" r="5.4"/>
  <circle cx="385" cy="133" r="5.4"/>
  <circle cx="399" cy="133" r="5.4"/>
  <circle cx="441" cy="133" r="5.4"/>
  <circle cx="455" cy="133" r="5.4"/>
  <circle cx="483" cy="133" r="5.4"/>
  <rect x="532" y="126" width="14" height="14"/>
  <rect x="616" y="126" width="14" height="14"/>
  <rect x="56" y="140" width="14" height="14"/>
  <rect x="70" y="140" width="14" height="14"/>
  <rect x="84" y="140" width="14" height="14"/>
  <rect x="98" y="140" width="14" height="14"/>
  <rect x="112" y="140" width="14" height="14"/>
  <rect x="126" y="140" width="14" height="14"/>
  <rect x="140" y="140" width="14" height="14"/>
  <circle cx="175" cy="147" r="5.4"/>
  <circle cx="203" cy="147" r="5.4"/>
  <circle cx="231" cy="147" r="5.4"/>
  <circle cx="259" cy="147" r="5.4"/>
  <circle cx="287" cy="147" r="5.4"/>
  <circle cx="315" cy="147" r="5.4"/>
  <circle cx="343" cy="147" r="5.4"/>
  <circle cx="371" cy="147" r="5.4"/>
  <circle cx="399" cy="147" r="5.4"/>
  <circle cx="427" cy="147" r="5.4"/>
  <circle cx="455" cy="147" r="5.4"/>
  <circle cx="483" cy="147" r="5.4"/>
  <circle cx="511" cy="147" r="5.4"/>
  <rect x="532" y="140" width="14" height="14"/>
  <rect x="546" y="140" width="14" height="14"/>
  <rect x="560" y="140" width="14" height="14"/>
  <rect x="574" y="140" width="14" height="14"/>
  <rect x="588" y="140" width="14" height="14"/>
  <rect x="602" y="140" width="14" height="14"/>
  <rect x="616" y="140" width="14" height="14"/>
  <circle cx="175" cy="161" r="5.4"/>
  <circle cx="189" cy="161" r="5.4"/>
  <circle cx="203" cy="161" r="5.4"/>
  <circle cx="231" cy="161" r="5.4"/>
  <circle cx="245" cy="161" r="5.4"/>
  <circle cx="315" cy="161" r="5.4"/>
  <circle cx="329" cy="161" r="5.4"/>
  <circle cx="357" cy="161" r="5.4"/>
  <circle cx="413" cy="161" r="5.4"/>
  <circle cx="427" cy="161" r="5.4"/>
  <circle cx="497" cy="161" r="5.4"/>
  <circle cx="511" cy="161" r="5.4"/>
  <circle cx="91" cy="175" r="5.4"/>
  <circle cx="105" cy="175" r="5.4"/>
  <circle cx="119" cy="175" r="5.4"/>
  <circle cx="147" cy="175" r="5.4"/>
  <circle cx="175" cy="175" r="5.4"/>
  <circle cx="189" cy="175" r="5.4"/>
  <circle cx="217" cy="175" r="5.4"/>
  <circle cx="231" cy="175" r="5.4"/>
  <circle cx="259" cy="175" r="5.4"/>
  <circle cx="287" cy="175" r="5.4"/>
  <circle cx="301" cy="175" r="5.4"/>
  <circle cx="315" cy="175" r="5.4"/>
  <circle cx="329" cy="175" r="5.4"/>
  <circle cx="343" cy="175" r="5.4"/>
  <circle cx="385" cy="175" r="5.4"/>
  <circle cx="413" cy="175" r="5.4"/>
  <circle cx="427" cy="175" r="5.4"/>
  <circle cx="441" cy="175" r="5.4"/>
  <circle cx="469" cy="175" r="5.4"/>
  <circle cx="497" cy="175" r="5.4"/>
  <circle cx="511" cy="175" r="5.4"/>
  <circle cx="525" cy="175" r="5.4"/>
  <circle cx="539" cy="175" r="5.4"/>
  <circle cx="553" cy="175" r="5.4"/>
  <circle cx="595" cy="175" r="5.4"/>
  <circle cx="609" cy="175" r="5.4"/>
  <circle cx="623" cy="175" r="5.4"/>
  <circle cx="91" cy="189" r="5.4"/>
  <circle cx="133" cy="189" r="5.4"/>
  <circle cx="217" cy="189" r="5.4"/>
  <circle cx="273" cy="189" r="5.4"/>
  <circle cx="315" cy="189" r="5.4"/>
  <circle cx="329" cy="189" r="5.4"/>
  <circle cx="343" cy="189" r="5.4"/>
  <circle cx="371" cy="189" r="5.4"/>
  <circle cx="385" cy="189" r="5.4"/>
  <circle cx="455" cy="189" r="5.4"/>
  <circle cx="469" cy="189" r="5.4"/>
  <circle cx="483" cy="189" r="5.4"/>
  <circle cx="497" cy="189" r="5.4"/>
  <circle cx="511" cy="189" r="5.4"/>
  <circle cx="539" cy="189" r="5.4"/>
  <circle cx="553" cy="189" r="5.4"/>
  <circle cx="567" cy="189" r="5.4"/>
  <circle cx="595" cy="189" r="5.4"/>
  <circle cx="609" cy="189" r="5.4"/>
  <circle cx="623" cy="189" r="5.4"/>
  <circle cx="91" cy="203" r="5.4"/>
  <circle cx="147" cy="203" r="5.4"/>
  <circle cx="203" cy="203" r="5.4"/>
  <circle cx="217" cy="203" r="5.4"/>
  <circle cx="273" cy="203" r="5.4"/>
  <circle cx="287" cy="203" r="5.4"/>
  <circle cx="301" cy="203" r="5.4"/>
  <circle cx="315" cy="203" r="5.4"/>
  <circle cx="329" cy="203" r="5.4"/>
  <circle cx="343" cy="203" r="5.4"/>
  <circle cx="357" cy="203" r="5.4"/>
  <circle cx="371" cy="203" r="5.4"/>
  <circle cx="399" cy="203" r="5.4"/>
  <circle cx="441" cy="203" r="5.4"/>
  <circle cx="455" cy="203" r="5.4"/>
  <circle cx="483" cy="203" r="5.4"/>
  <circle cx="511" cy="203" r="5.4"/>
  <circle cx="553" cy="203" r="5.4"/>
  <circle cx="567" cy="203" r="5.4"/>
  <circle cx="119" cy="217" r="5.4"/>
  <circle cx="133" cy="217" r="5.4"/>
  <circle cx="161" cy="217" r="5.4"/>
  <circle cx="189" cy="217" r="5.4"/>
  <circle cx="203" cy="217" r="5.4"/>
  <circle cx="217" cy="217" r="5.4"/>
  <circle cx="231" cy="217" r="5.4"/>
  <circle cx="273" cy="217" r="5.4"/>
  <circle cx="343" cy="217" r="5.4"/>
  <circle cx="371" cy="217" r="5.4"/>
  <circle cx="399" cy="217" r="5.4"/>
  <circle cx="413" cy="217" r="5.4"/>
  <circle cx="455" cy="217" r="5.4"/>
  <circle cx="497" cy="217" r="5.4"/>
  <circle cx="511" cy="217" r="5.4"/>
  <circle cx="581" cy="217" r="5.4"/>
  <circle cx="63" cy="231" r="5.4"/>
  <circle cx="91" cy="231" r="5.4"/>
  <circle cx="147" cy="231" r="5.4"/>
  <circle cx="161" cy="231" r="5.4"/>
  <circle cx="175" cy="231" r="5.4"/>
  <circle cx="189" cy="231" r="5.4"/>
  <circle cx="217" cy="231" r="5.4"/>
  <circle cx="273" cy="231" r="5.4"/>
  <circle cx="315" cy="231" r="5.4"/>
  <circle cx="329" cy="231" r="5.4"/>
  <circle cx="343" cy="231" r="5.4"/>
  <circle cx="399" cy="231" r="5.4"/>
  <circle cx="455" cy="231" r="5.4"/>
  <circle cx="469" cy="231" r="5.4"/>
  <circle cx="497" cy="231" r="5.4"/>
  <circle cx="581" cy="231" r="5.4"/>
  <circle cx="595" cy="231" r="5.4"/>
  <circle cx="623" cy="231" r="5.4"/>
  <circle cx="105" cy="245" r="5.4"/>
  <circle cx="133" cy="245" r="5.4"/>
  <circle cx="175" cy="245" r="5.4"/>
  <circle cx="259" cy="245" r="5.4"/>
  <circle cx="273" cy="245" r="5.4"/>
  <circle cx="315" cy="245" r="5.4"/>
  <circle cx="329" cy="245" r="5.4"/>
  <circle cx="357" cy="245" r="5.4"/>
  <circle cx="385" cy="245" r="5.4"/>
  <circle cx="441" cy="245" r="5.4"/>
  <circle cx="469" cy="245" r="5.4"/>
  <circle cx="483" cy="245" r="5.4"/>
  <circle cx="511" cy="245" r="5.4"/>
  <circle cx="539" cy="245" r="5.4"/>
  <circle cx="553" cy="245" r="5.4"/>
  <circle cx="567" cy="245" r="5.4"/>
  <circle cx="581" cy="245" r="5.4"/>
  <circle cx="595" cy="245" r="5.4"/>
  <circle cx="609" cy="245" r="5.4"/>
  <circle cx="623" cy="245" r="5.4"/>
  <circle cx="91" cy="259" r="5.4"/>
  <circle cx="133" cy="259" r="5.4"/>
  <circle cx="147" cy="259" r="5.4"/>
  <circle cx="175" cy="259" r="5.4"/>
  <circle cx="189" cy="259" r="5.4"/>
  <circle cx="217" cy="259" r="5.4"/>
  <circle cx="231" cy="259" r="5.4"/>
  <circle cx="301" cy="259" r="5.4"/>
  <circle cx="357" cy="259" r="5.4"/>
  <circle cx="371" cy="259" r="5.4"/>
  <circle cx="385" cy="259" r="5.4"/>
  <circle cx="427" cy="259" r="5.4"/>
  <circle cx="441" cy="259" r="5.4"/>
  <circle cx="455" cy="259" r="5.4"/>
  <circle cx="483" cy="259" r="5.4"/>
  <circle cx="497" cy="259" r="5.4"/>
  <circle cx="525" cy="259" r="5.4"/>
  <circle cx="567" cy="259" r="5.4"/>
  <circle cx="595" cy="259" r="5.4"/>
  <circle cx="91" cy="273" r="5.4"/>
  <circle cx="105" cy="273" r="5.4"/>
  <circle cx="203" cy="273" r="5.4"/>
  <circle cx="217" cy="273" r="5.4"/>
  <circle cx="231" cy="273" r="5.4"/>
  <circle cx="245" cy="273" r="5.4"/>
  <circle cx="259" cy="273" r="5.4"/>
  <circle cx="273" cy="273" r="5.4"/>
  <circle cx="287" cy="273" r="5.4"/>
  <circle cx="315" cy="273" r="5.4"/>
  <circle cx="357" cy="273" r="5.4"/>
  <circle cx="371" cy="273" r="5.4"/>
  <circle cx="385" cy="273" r="5.4"/>
  <circle cx="399" cy="273" r="5.4"/>
  <circle cx="413" cy="273" r="5.4"/>
  <circle cx="427" cy="273" r="5.4"/>
  <circle cx="441" cy="273" r="5.4"/>
  <circle cx="497" cy="273" r="5.4"/>
  <circle cx="511" cy="273" r="5.4"/>
  <circle cx="539" cy="273" r="5.4"/>
  <circle cx="553" cy="273" r="5.4"/>
  <circle cx="567" cy="273" r="5.4"/>
  <circle cx="581" cy="273" r="5.4"/>
  <circle cx="609" cy="273" r="5.4"/>
  <circle cx="91" cy="287" r="5.4"/>
  <circle cx="105" cy="287" r="5.4"/>
  <circle cx="119" cy="287" r="5.4"/>
  <circle cx="147" cy="287" r="5.4"/>
  <circle cx="189" cy="287" r="5.4"/>
  <circle cx="217" cy="287" r="5.4"/>
  <circle cx="231" cy="287" r="5.4"/>
  <circle cx="259" cy="287" r="5.4"/>
  <circle cx="301" cy="287" r="5.4"/>
  <circle cx="329" cy="287" r="5.4"/>
  <circle cx="343" cy="287" r="5.4"/>
  <circle cx="357" cy="287" r="5.4"/>
  <circle cx="399" cy="287" r="5.4"/>
  <circle cx="413" cy="287" r="5.4"/>
  <circle cx="441" cy="287" r="5.4"/>
  <circle cx="455" cy="287" r="5.4"/>
  <circle cx="469" cy="287" r="5.4"/>
  <circle cx="497" cy="287" r="5.4"/>
  <circle cx="525" cy="287" r="5.4"/>
  <circle cx="553" cy="287" r="5.4"/>
  <circle cx="595" cy="287" r="5.4"/>
  <circle cx="77" cy="301" r="5.4"/>
  <circle cx="91" cy="301" r="5.4"/>
  <circle cx="105" cy="301" r="5.4"/>
  <circle cx="119" cy="301" r="5.4"/>
  <circle cx="133" cy="301" r="5.4"/>
  <circle cx="161" cy="301" r="5.4"/>
  <circle cx="189" cy="301" r="5.4"/>
  <circle cx="203" cy="301" r="5.4"/>
  <circle cx="231" cy="301" r="5.4"/>
  <circle cx="273" cy="301" r="5.4"/>
  <circle cx="301" cy="301" r="5.4"/>
  <circle cx="343" cy="301" r="5.4"/>
  <circle cx="357" cy="301" r="5.4"/>
  <circle cx="371" cy="301" r="5.4"/>
  <circle cx="455" cy="301" r="5.4"/>
  <circle cx="469" cy="301" r="5.4"/>
  <circle cx="483" cy="301" r="5.4"/>
  <circle cx="497" cy="301" r="5.4"/>
  <circle cx="539" cy="301" r="5.4"/>
  <circle cx="553" cy="301" r="5.4"/>
  <circle cx="567" cy="301" r="5.4"/>
  <circle cx="581" cy="301" r="5.4"/>
  <circle cx="609" cy="301" r="5.4"/>
  <circle cx="623" cy="301" r="5.4"/>
  <circle cx="77" cy="315" r="5.4"/>
  <circle cx="119" cy="315" r="5.4"/>
  <circle cx="133" cy="315" r="5.4"/>
  <circle cx="147" cy="315" r="5.4"/>
  <circle cx="175" cy="315" r="5.4"/>
  <circle cx="189" cy="315" r="5.4"/>
  <circle cx="203" cy="315" r="5.4"/>
  <circle cx="217" cy="315" r="5.4"/>
  <circle cx="231" cy="315" r="5.4"/>
  <circle cx="273" cy="315" r="5.4"/>
  <circle cx="301" cy="315" r="5.4"/>
  <circle cx="315" cy="315" r="5.4"/>
  <circle cx="343" cy="315" r="5.4"/>
  <circle cx="357" cy="315" r="5.4"/>
  <circle cx="385" cy="315" r="5.4"/>
  <circle cx="413" cy="315" r="5.4"/>
  <circle cx="427" cy="315" r="5.4"/>
  <circle cx="441" cy="315" r="5.4"/>
  <circle cx="455" cy="315" r="5.4"/>
  <circle cx="469" cy="315" r="5.4"/>
  <circle cx="525" cy="315" r="5.4"/>
  <circle cx="539" cy="315" r="5.4"/>
  <circle cx="567" cy="315" r="5.4"/>
  <circle cx="581" cy="315" r="5.4"/>
  <circle cx="609" cy="315" r="5.4"/>
  <circle cx="77" cy="329" r="5.4"/>
  <circle cx="91" cy="329" r="5.4"/>
  <circle cx="105" cy="329" r="5.4"/>
  <circle cx="119" cy="329" r="5.4"/>
  <circle cx="133" cy="329" r="5.4"/>
  <circle cx="161" cy="329" r="5.4"/>
  <circle cx="175" cy="329" r="5.4"/>
  <circle cx="189" cy="329" r="5.4"/>
  <circle cx="273" cy="329" r="5.4"/>
  <circle cx="301" cy="329" r="5.4"/>
  <circle cx="343" cy="329" r="5.4"/>
  <circle cx="371" cy="329" r="5.4"/>
  <circle cx="385" cy="329" r="5.4"/>
  <circle cx="399" cy="329" r="5.4"/>
  <circle cx="413" cy="329" r="5.4"/>
  <circle cx="427" cy="329" r="5.4"/>
  <circle cx="441" cy="329" r="5.4"/>
  <circle cx="455" cy="329" r="5.4"/>
  <circle cx="469" cy="329" r="5.4"/>
  <circle cx="483" cy="329" r="5.4"/>
  <circle cx="497" cy="329" r="5.4"/>
  <circle cx="525" cy="329" r="5.4"/>
  <circle cx="567" cy="329" r="5.4"/>
  <circle cx="77" cy="343" r="5.4"/>
  <circle cx="91" cy="343" r="5.4"/>
  <circle cx="119" cy="343" r="5.4"/>
  <circle cx="133" cy="343" r="5.4"/>
  <circle cx="147" cy="343" r="5.4"/>
  <circle cx="189" cy="343" r="5.4"/>
  <circle cx="231" cy="343" r="5.4"/>
  <circle cx="245" cy="343" r="5.4"/>
  <circle cx="259" cy="343" r="5.4"/>
  <circle cx="273" cy="343" r="5.4"/>
  <circle cx="301" cy="343" r="5.4"/>
  <circle cx="315" cy="343" r="5.4"/>
  <circle cx="329" cy="343" r="5.4"/>
  <circle cx="343" cy="343" r="5.4"/>
  <circle cx="357" cy="343" r="5.4"/>
  <circle cx="399" cy="343" r="5.4"/>
  <circle cx="413" cy="343" r="5.4"/>
  <circle cx="441" cy="343" r="5.4"/>
  <circle cx="595" cy="343" r="5.4"/>
  <circle cx="609" cy="343" r="5.4"/>
  <circle cx="623" cy="343" r="5.4"/>
  <circle cx="77" cy="357" r="5.4"/>
  <circle cx="91" cy="357" r="5.4"/>
  <circle cx="119" cy="357" r="5.4"/>
  <circle cx="161" cy="357" r="5.4"/>
  <circle cx="189" cy="357" r="5.4"/>
  <circle cx="203" cy="357" r="5.4"/>
  <circle cx="217" cy="357" r="5.4"/>
  <circle cx="259" cy="357" r="5.4"/>
  <circle cx="273" cy="357" r="5.4"/>
  <circle cx="301" cy="357" r="5.4"/>
  <circle cx="329" cy="357" r="5.4"/>
  <circle cx="343" cy="357" r="5.4"/>
  <circle cx="385" cy="357" r="5.4"/>
  <circle cx="399" cy="357" r="5.4"/>
  <circle cx="413" cy="357" r="5.4"/>
  <circle cx="455" cy="357" r="5.4"/>
  <circle cx="483" cy="357" r="5.4"/>
  <circle cx="497" cy="357" r="5.4"/>
  <circle cx="539" cy="357" r="5.4"/>
  <circle cx="553" cy="357" r="5.4"/>
  <circle cx="567" cy="357" r="5.4"/>
  <circle cx="609" cy="357" r="5.4"/>
  <circle cx="623" cy="357" r="5.4"/>
  <circle cx="63" cy="371" r="5.4"/>
  <circle cx="77" cy="371" r="5.4"/>
  <circle cx="105" cy="371" r="5.4"/>
  <circle cx="133" cy="371" r="5.4"/>
  <circle cx="147" cy="371" r="5.4"/>
  <circle cx="175" cy="371" r="5.4"/>
  <circle cx="189" cy="371" r="5.4"/>
  <circle cx="203" cy="371" r="5.4"/>
  <circle cx="231" cy="371" r="5.4"/>
  <circle cx="259" cy="371" r="5.4"/>
  <circle cx="273" cy="371" r="5.4"/>
  <circle cx="301" cy="371" r="5.4"/>
  <circle cx="315" cy="371" r="5.4"/>
  <circle cx="329" cy="371" r="5.4"/>
  <circle cx="357" cy="371" r="5.4"/>
  <circle cx="371" cy="371" r="5.4"/>
  <circle cx="413" cy="371" r="5.4"/>
  <circle cx="441" cy="371" r="5.4"/>
  <circle cx="455" cy="371" r="5.4"/>
  <circle cx="483" cy="371" r="5.4"/>
  <circle cx="553" cy="371" r="5.4"/>
  <circle cx="581" cy="371" r="5.4"/>
  <circle cx="595" cy="371" r="5.4"/>
  <circle cx="63" cy="385" r="5.4"/>
  <circle cx="77" cy="385" r="5.4"/>
  <circle cx="91" cy="385" r="5.4"/>
  <circle cx="105" cy="385" r="5.4"/>
  <circle cx="133" cy="385" r="5.4"/>
  <circle cx="189" cy="385" r="5.4"/>
  <circle cx="273" cy="385" r="5.4"/>
  <circle cx="287" cy="385" r="5.4"/>
  <circle cx="301" cy="385" r="5.4"/>
  <circle cx="329" cy="385" r="5.4"/>
  <circle cx="385" cy="385" r="5.4"/>
  <circle cx="413" cy="385" r="5.4"/>
  <circle cx="441" cy="385" r="5.4"/>
  <circle cx="497" cy="385" r="5.4"/>
  <circle cx="525" cy="385" r="5.4"/>
  <circle cx="539" cy="385" r="5.4"/>
  <circle cx="567" cy="385" r="5.4"/>
  <circle cx="581" cy="385" r="5.4"/>
  <circle cx="623" cy="385" r="5.4"/>
  <circle cx="63" cy="399" r="5.4"/>
  <circle cx="105" cy="399" r="5.4"/>
  <circle cx="119" cy="399" r="5.4"/>
  <circle cx="133" cy="399" r="5.4"/>
  <circle cx="147" cy="399" r="5.4"/>
  <circle cx="189" cy="399" r="5.4"/>
  <circle cx="217" cy="399" r="5.4"/>
  <circle cx="231" cy="399" r="5.4"/>
  <circle cx="245" cy="399" r="5.4"/>
  <circle cx="287" cy="399" r="5.4"/>
  <circle cx="315" cy="399" r="5.4"/>
  <circle cx="343" cy="399" r="5.4"/>
  <circle cx="357" cy="399" r="5.4"/>
  <circle cx="371" cy="399" r="5.4"/>
  <circle cx="399" cy="399" r="5.4"/>
  <circle cx="413" cy="399" r="5.4"/>
  <circle cx="441" cy="399" r="5.4"/>
  <circle cx="469" cy="399" r="5.4"/>
  <circle cx="595" cy="399" r="5.4"/>
  <circle cx="609" cy="399" r="5.4"/>
  <circle cx="63" cy="413" r="5.4"/>
  <circle cx="77" cy="413" r="5.4"/>
  <circle cx="91" cy="413" r="5.4"/>
  <circle cx="119" cy="413" r="5.4"/>
  <circle cx="231" cy="413" r="5.4"/>
  <circle cx="245" cy="413" r="5.4"/>
  <circle cx="273" cy="413" r="5.4"/>
  <circle cx="315" cy="413" r="5.4"/>
  <circle cx="329" cy="413" r="5.4"/>
  <circle cx="371" cy="413" r="5.4"/>
  <circle cx="385" cy="413" r="5.4"/>
  <circle cx="399" cy="413" r="5.4"/>
  <circle cx="413" cy="413" r="5.4"/>
  <circle cx="455" cy="413" r="5.4"/>
  <circle cx="469" cy="413" r="5.4"/>
  <circle cx="483" cy="413" r="5.4"/>
  <circle cx="497" cy="413" r="5.4"/>
  <circle cx="525" cy="413" r="5.4"/>
  <circle cx="539" cy="413" r="5.4"/>
  <circle cx="553" cy="413" r="5.4"/>
  <circle cx="567" cy="413" r="5.4"/>
  <circle cx="581" cy="413" r="5.4"/>
  <circle cx="609" cy="413" r="5.4"/>
  <circle cx="623" cy="413" r="5.4"/>
  <circle cx="63" cy="427" r="5.4"/>
  <circle cx="77" cy="427" r="5.4"/>
  <circle cx="91" cy="427" r="5.4"/>
  <circle cx="105" cy="427" r="5.4"/>
  <circle cx="133" cy="427" r="5.4"/>
  <circle cx="147" cy="427" r="5.4"/>
  <circle cx="175" cy="427" r="5.4"/>
  <circle cx="203" cy="427" r="5.4"/>
  <circle cx="245" cy="427" r="5.4"/>
  <circle cx="315" cy="427" r="5.4"/>
  <circle cx="343" cy="427" r="5.4"/>
  <circle cx="357" cy="427" r="5.4"/>
  <circle cx="385" cy="427" r="5.4"/>
  <circle cx="399" cy="427" r="5.4"/>
  <circle cx="427" cy="427" r="5.4"/>
  <circle cx="441" cy="427" r="5.4"/>
  <circle cx="469" cy="427" r="5.4"/>
  <circle cx="511" cy="427" r="5.4"/>
  <circle cx="525" cy="427" r="5.4"/>
  <circle cx="567" cy="427" r="5.4"/>
  <circle cx="609" cy="427" r="5.4"/>
  <circle cx="105" cy="441" r="5.4"/>
  <circle cx="119" cy="441" r="5.4"/>
  <circle cx="161" cy="441" r="5.4"/>
  <circle cx="189" cy="441" r="5.4"/>
  <circle cx="203" cy="441" r="5.4"/>
  <circle cx="217" cy="441" r="5.4"/>
  <circle cx="231" cy="441" r="5.4"/>
  <circle cx="287" cy="441" r="5.4"/>
  <circle cx="301" cy="441" r="5.4"/>
  <circle cx="315" cy="441" r="5.4"/>
  <circle cx="413" cy="441" r="5.4"/>
  <circle cx="427" cy="441" r="5.4"/>
  <circle cx="441" cy="441" r="5.4"/>
  <circle cx="455" cy="441" r="5.4"/>
  <circle cx="497" cy="441" r="5.4"/>
  <circle cx="511" cy="441" r="5.4"/>
  <circle cx="539" cy="441" r="5.4"/>
  <circle cx="553" cy="441" r="5.4"/>
  <circle cx="581" cy="441" r="5.4"/>
  <circle cx="63" cy="455" r="5.4"/>
  <circle cx="77" cy="455" r="5.4"/>
  <circle cx="119" cy="455" r="5.4"/>
  <circle cx="133" cy="455" r="5.4"/>
  <circle cx="147" cy="455" r="5.4"/>
  <circle cx="161" cy="455" r="5.4"/>
  <circle cx="189" cy="455" r="5.4"/>
  <circle cx="245" cy="455" r="5.4"/>
  <circle cx="287" cy="455" r="5.4"/>
  <circle cx="301" cy="455" r="5.4"/>
  <circle cx="315" cy="455" r="5.4"/>
  <circle cx="371" cy="455" r="5.4"/>
  <circle cx="399" cy="455" r="5.4"/>
  <circle cx="441" cy="455" r="5.4"/>
  <circle cx="469" cy="455" r="5.4"/>
  <circle cx="483" cy="455" r="5.4"/>
  <circle cx="497" cy="455" r="5.4"/>
  <circle cx="525" cy="455" r="5.4"/>
  <circle cx="553" cy="455" r="5.4"/>
  <circle cx="581" cy="455" r="5.4"/>
  <circle cx="595" cy="455" r="5.4"/>
  <circle cx="609" cy="455" r="5.4"/>
  <circle cx="623" cy="455" r="5.4"/>
  <circle cx="63" cy="469" r="5.4"/>
  <circle cx="91" cy="469" r="5.4"/>
  <circle cx="119" cy="469" r="5.4"/>
  <circle cx="189" cy="469" r="5.4"/>
  <circle cx="217" cy="469" r="5.4"/>
  <circle cx="245" cy="469" r="5.4"/>
  <circle cx="259" cy="469" r="5.4"/>
  <circle cx="287" cy="469" r="5.4"/>
  <circle cx="301" cy="469" r="5.4"/>
  <circle cx="343" cy="469" r="5.4"/>
  <circle cx="357" cy="469" r="5.4"/>
  <circle cx="371" cy="469" r="5.4"/>
  <circle cx="399" cy="469" r="5.4"/>
  <circle cx="413" cy="469" r="5.4"/>
  <circle cx="427" cy="469" r="5.4"/>
  <circle cx="441" cy="469" r="5.4"/>
  <circle cx="455" cy="469" r="5.4"/>
  <circle cx="469" cy="469" r="5.4"/>
  <circle cx="483" cy="469" r="5.4"/>
  <circle cx="525" cy="469" r="5.4"/>
  <circle cx="539" cy="469" r="5.4"/>
  <circle cx="553" cy="469" r="5.4"/>
  <circle cx="567" cy="469" r="5.4"/>
  <circle cx="581" cy="469" r="5.4"/>
  <circle cx="623" cy="469" r="5.4"/>
  <circle cx="63" cy="483" r="5.4"/>
  <circle cx="105" cy="483" r="5.4"/>
  <circle cx="119" cy="483" r="5.4"/>
  <circle cx="133" cy="483" r="5.4"/>
  <circle cx="147" cy="483" r="5.4"/>
  <circle cx="189" cy="483" r="5.4"/>
  <circle cx="259" cy="483" r="5.4"/>
  <circle cx="287" cy="483" r="5.4"/>
  <circle cx="315" cy="483" r="5.4"/>
  <circle cx="343" cy="483" r="5.4"/>
  <circle cx="357" cy="483" r="5.4"/>
  <circle cx="371" cy="483" r="5.4"/>
  <circle cx="413" cy="483" r="5.4"/>
  <circle cx="469" cy="483" r="5.4"/>
  <circle cx="511" cy="483" r="5.4"/>
  <circle cx="525" cy="483" r="5.4"/>
  <circle cx="539" cy="483" r="5.4"/>
  <circle cx="553" cy="483" r="5.4"/>
  <circle cx="567" cy="483" r="5.4"/>
  <circle cx="581" cy="483" r="5.4"/>
  <circle cx="595" cy="483" r="5.4"/>
  <circle cx="63" cy="497" r="5.4"/>
  <circle cx="91" cy="497" r="5.4"/>
  <circle cx="105" cy="497" r="5.4"/>
  <circle cx="119" cy="497" r="5.4"/>
  <circle cx="133" cy="497" r="5.4"/>
  <circle cx="161" cy="497" r="5.4"/>
  <circle cx="203" cy="497" r="5.4"/>
  <circle cx="245" cy="497" r="5.4"/>
  <circle cx="259" cy="497" r="5.4"/>
  <circle cx="273" cy="497" r="5.4"/>
  <circle cx="301" cy="497" r="5.4"/>
  <circle cx="315" cy="497" r="5.4"/>
  <circle cx="357" cy="497" r="5.4"/>
  <circle cx="371" cy="497" r="5.4"/>
  <circle cx="399" cy="497" r="5.4"/>
  <circle cx="427" cy="497" r="5.4"/>
  <circle cx="455" cy="497" r="5.4"/>
  <circle cx="483" cy="497" r="5.4"/>
  <circle cx="497" cy="497" r="5.4"/>
  <circle cx="511" cy="497" r="5.4"/>
  <circle cx="525" cy="497" r="5.4"/>
  <circle cx="539" cy="497" r="5.4"/>
  <circle cx="581" cy="497" r="5.4"/>
  <circle cx="63" cy="511" r="5.4"/>
  <circle cx="91" cy="511" r="5.4"/>
  <circle cx="105" cy="511" r="5.4"/>
  <circle cx="119" cy="511" r="5.4"/>
  <circle cx="133" cy="511" r="5.4"/>
  <circle cx="147" cy="511" r="5.4"/>
  <circle cx="161" cy="511" r="5.4"/>
  <circle cx="189" cy="511" r="5.4"/>
  <circle cx="259" cy="511" r="5.4"/>
  <circle cx="287" cy="511" r="5.4"/>
  <circle cx="301" cy="511" r="5.4"/>
  <circle cx="329" cy="511" r="5.4"/>
  <circle cx="399" cy="511" r="5.4"/>
  <circle cx="455" cy="511" r="5.4"/>
  <circle cx="469" cy="511" r="5.4"/>
  <circle cx="497" cy="511" r="5.4"/>
  <circle cx="511" cy="511" r="5.4"/>
  <circle cx="525" cy="511" r="5.4"/>
  <circle cx="539" cy="511" r="5.4"/>
  <circle cx="553" cy="511" r="5.4"/>
  <circle cx="567" cy="511" r="5.4"/>
  <circle cx="595" cy="511" r="5.4"/>
  <circle cx="175" cy="525" r="5.4"/>
  <circle cx="189" cy="525" r="5.4"/>
  <circle cx="203" cy="525" r="5.4"/>
  <circle cx="217" cy="525" r="5.4"/>
  <circle cx="231" cy="525" r="5.4"/>
  <circle cx="259" cy="525" r="5.4"/>
  <circle cx="273" cy="525" r="5.4"/>
  <circle cx="287" cy="525" r="5.4"/>
  <circle cx="301" cy="525" r="5.4"/>
  <circle cx="315" cy="525" r="5.4"/>
  <circle cx="329" cy="525" r="5.4"/>
  <circle cx="343" cy="525" r="5.4"/>
  <circle cx="357" cy="525" r="5.4"/>
  <circle cx="371" cy="525" r="5.4"/>
  <circle cx="385" cy="525" r="5.4"/>
  <circle cx="399" cy="525" r="5.4"/>
  <circle cx="455" cy="525" r="5.4"/>
  <circle cx="483" cy="525" r="5.4"/>
  <circle cx="497" cy="525" r="5.4"/>
  <circle cx="511" cy="525" r="5.4"/>
  <circle cx="567" cy="525" r="5.4"/>
  <circle cx="581" cy="525" r="5.4"/>
  <circle cx="595" cy="525" r="5.4"/>
  <circle cx="609" cy="525" r="5.4"/>
  <circle cx="623" cy="525" r="5.4"/>
  <rect x="56" y="532" width="14" height="14"/>
  <rect x="70" y="532" width="14" height="14"/>
  <rect x="84" y="532" width="14" height="14"/>
  <rect x="98" y="532" width="14" height="14"/>
  <rect x="112" y="532" width="14" height="14"/>
  <rect x="126" y="532" width="14" height="14"/>
  <rect x="140" y="532" width="14" height="14"/>
  <circle cx="189" cy="539" r="5.4"/>
  <circle cx="203" cy="539" r="5.4"/>
  <circle cx="217" cy="539" r="5.4"/>
  <circle cx="231" cy="539" r="5.4"/>
  <circle cx="245" cy="539" r="5.4"/>
  <circle cx="259" cy="539" r="5.4"/>
  <circle cx="273" cy="539" r="5.4"/>
  <circle cx="287" cy="539" r="5.4"/>
  <circle cx="329" cy="539" r="5.4"/>
  <circle cx="343" cy="539" r="5.4"/>
  <circle cx="371" cy="539" r="5.4"/>
  <circle cx="399" cy="539" r="5.4"/>
  <circle cx="427" cy="539" r="5.4"/>
  <circle cx="441" cy="539" r="5.4"/>
  <circle cx="483" cy="539" r="5.4"/>
  <circle cx="497" cy="539" r="5.4"/>
  <circle cx="511" cy="539" r="5.4"/>
  <circle cx="539" cy="539" r="5.4"/>
  <circle cx="567" cy="539" r="5.4"/>
  <circle cx="581" cy="539" r="5.4"/>
  <rect x="56" y="546" width="14" height="14"/>
  <rect x="140" y="546" width="14" height="14"/>
  <circle cx="189" cy="553" r="5.4"/>
  <circle cx="203" cy="553" r="5.4"/>
  <circle cx="301" cy="553" r="5.4"/>
  <circle cx="315" cy="553" r="5.4"/>
  <circle cx="329" cy="553" r="5.4"/>
  <circle cx="357" cy="553" r="5.4"/>
  <circle cx="371" cy="553" r="5.4"/>
  <circle cx="413" cy="553" r="5.4"/>
  <circle cx="497" cy="553" r="5.4"/>
  <circle cx="511" cy="553" r="5.4"/>
  <circle cx="567" cy="553" r="5.4"/>
  <circle cx="581" cy="553" r="5.4"/>
  <circle cx="609" cy="553" r="5.4"/>
  <rect x="56" y="560" width="14" height="14"/>
  <rect x="84" y="560" width="14" height="14"/>
  <rect x="98" y="560" width="14" height="14"/>
  <rect x="112" y="560" width="14" height="14"/>
  <rect x="140" y="560" width="14" height="14"/>
  <circle cx="175" cy="567" r="5.4"/>
  <circle cx="189" cy="567" r="5.4"/>
  <circle cx="203" cy="567" r="5.4"/>
  <circle cx="217" cy="567" r="5.4"/>
  <circle cx="231" cy="567" r="5.4"/>
  <circle cx="259" cy="567" r="5.4"/>
  <circle cx="273" cy="567" r="5.4"/>
  <circle cx="301" cy="567" r="5.4"/>
  <circle cx="399" cy="567" r="5.4"/>
  <circle cx="427" cy="567" r="5.4"/>
  <circle cx="483" cy="567" r="5.4"/>
  <circle cx="511" cy="567" r="5.4"/>
  <circle cx="525" cy="567" r="5.4"/>
  <circle cx="539" cy="567" r="5.4"/>
  <circle cx="553" cy="567" r="5.4"/>
  <circle cx="567" cy="567" r="5.4"/>
  <circle cx="595" cy="567" r="5.4"/>
  <rect x="56" y="574" width="14" height="14"/>
  <rect x="84" y="574" width="14" height="14"/>
  <rect x="98" y="574" width="14" height="14"/>
  <rect x="112" y="574" width="14" height="14"/>
  <rect x="140" y="574" width="14" height="14"/>
  <circle cx="175" cy="581" r="5.4"/>
  <circle cx="189" cy="581" r="5.4"/>
  <circle cx="217" cy="581" r="5.4"/>
  <circle cx="273" cy="581" r="5.4"/>
  <circle cx="301" cy="581" r="5.4"/>
  <circle cx="315" cy="581" r="5.4"/>
  <circle cx="329" cy="581" r="5.4"/>
  <circle cx="343" cy="581" r="5.4"/>
  <circle cx="413" cy="581" r="5.4"/>
  <circle cx="427" cy="581" r="5.4"/>
  <circle cx="455" cy="581" r="5.4"/>
  <circle cx="497" cy="581" r="5.4"/>
  <circle cx="525" cy="581" r="5.4"/>
  <circle cx="553" cy="581" r="5.4"/>
  <circle cx="623" cy="581" r="5.4"/>
  <rect x="56" y="588" width="14" height="14"/>
  <rect x="84" y="588" width="14" height="14"/>
  <rect x="98" y="588" width="14" height="14"/>
  <rect x="112" y="588" width="14" height="14"/>
  <rect x="140" y="588" width="14" height="14"/>
  <circle cx="175" cy="595" r="5.4"/>
  <circle cx="189" cy="595" r="5.4"/>
  <circle cx="245" cy="595" r="5.4"/>
  <circle cx="259" cy="595" r="5.4"/>
  <circle cx="273" cy="595" r="5.4"/>
  <circle cx="287" cy="595" r="5.4"/>
  <circle cx="301" cy="595" r="5.4"/>
  <circle cx="315" cy="595" r="5.4"/>
  <circle cx="329" cy="595" r="5.4"/>
  <circle cx="343" cy="595" r="5.4"/>
  <circle cx="371" cy="595" r="5.4"/>
  <circle cx="427" cy="595" r="5.4"/>
  <circle cx="441" cy="595" r="5.4"/>
  <circle cx="455" cy="595" r="5.4"/>
  <circle cx="497" cy="595" r="5.4"/>
  <circle cx="525" cy="595" r="5.4"/>
  <circle cx="539" cy="595" r="5.4"/>
  <circle cx="553" cy="595" r="5.4"/>
  <circle cx="567" cy="595" r="5.4"/>
  <circle cx="581" cy="595" r="5.4"/>
  <circle cx="609" cy="595" r="5.4"/>
  <rect x="56" y="602" width="14" height="14"/>
  <rect x="140" y="602" width="14" height="14"/>
  <circle cx="245" cy="609" r="5.4"/>
  <circle cx="287" cy="609" r="5.4"/>
  <circle cx="315" cy="609" r="5.4"/>
  <circle cx="357" cy="609" r="5.4"/>
  <circle cx="385" cy="609" r="5.4"/>
  <circle cx="399" cy="609" r="5.4"/>
  <circle cx="413" cy="609" r="5.4"/>
  <circle cx="455" cy="609" r="5.4"/>
  <circle cx="483" cy="609" r="5.4"/>
  <circle cx="511" cy="609" r="5.4"/>
  <circle cx="567" cy="609" r="5.4"/>
  <circle cx="581" cy="609" r="5.4"/>
  <circle cx="609" cy="609" r="5.4"/>
  <rect x="56" y="616" width="14" height="14"/>
  <rect x="70" y="616" width="14" height="14"/>
  <rect x="84" y="616" width="14" height="14"/>
  <rect x="98" y="616" width="14" height="14"/>
  <rect x="112" y="616" width="14" height="14"/>
  <rect x="126" y="616" width="14" height="14"/>
  <rect x="140" y="616" width="14" height="14"/>
  <circle cx="189" cy="623" r="5.4"/>
  <circle cx="203" cy="623" r="5.4"/>
  <circle cx="287" cy="623" r="5.4"/>
  <circle cx="301" cy="623" r="5.4"/>
  <circle cx="371" cy="623" r="5.4"/>
  <circle cx="399" cy="623" r="5.4"/>
  <circle cx="427" cy="623" r="5.4"/>
  <circle cx="469" cy="623" r="5.4"/>
  <circle cx="497" cy="623" r="5.4"/>
  <circle cx="553" cy="623" r="5.4"/>
  <circle cx="567" cy="623" r="5.4"/>
  <circle cx="581" cy="623" r="5.4"/>
  <circle cx="595" cy="623" r="5.4"/>
  </g>
</svg>
